<?xml version="1.0" standalone="no"?>
<!DOCTYPE svg PUBLIC "-//W3C//DTD SVG 20010904//EN"
 "http://www.w3.org/TR/2001/REC-SVG-20010904/DTD/svg10.dtd">
<svg version="1.0" xmlns="http://www.w3.org/2000/svg"
 width="128.000000pt" height="128.000000pt" viewBox="0 0 128.000000 128.000000"
 preserveAspectRatio="xMidYMid meet">
<metadata>
Created by potrace 1.14, written by Peter Selinger 2001-2017
</metadata>
<g transform="translate(0.000000,128.000000) scale(0.100000,-0.100000)"
fill="#000000" stroke="none">
<path d="M223 1223 c-7 -2 -13 -20 -13 -39 0 -31 -3 -34 -28 -34 -15 0 -33 -5
-40 -12 -9 -9 -12 -141 -12 -534 0 -287 3 -529 6 -538 5 -14 59 -16 498 -16
369 0 495 3 504 12 9 9 12 144 12 544 0 581 4 544 -56 544 -21 0 -24 5 -24 34
0 22 -6 36 -16 40 -24 9 -44 -12 -44 -45 l0 -29 -70 0 c-70 0 -70 0 -70 28 0
36 -13 55 -36 50 -14 -2 -20 -13 -22 -41 l-3 -37 -70 0 c-69 0 -69 0 -69 28 0
36 -13 55 -36 50 -14 -2 -20 -13 -22 -41 l-3 -37 -70 0 c-66 0 -69 1 -69 24 0
37 -10 56 -30 56 -20 0 -30 -19 -30 -56 0 -23 -3 -24 -69 -24 l-70 0 -3 37
c-3 37 -17 48 -45 36z"/>
</g>
</svg>
